<svg id="visual" viewBox="0 0 960 540" width="960" height="540" xmlns="http://www.w3.org/2000/svg" xmlns:xlink="http://www.w3.org/1999/xlink" version="1.1"><rect x="0" y="0" width="960" height="540" fill="#001220"></rect><defs><linearGradient id="grad1_0" x1="43.8%" y1="100%" x2="100%" y2="0%"><stop offset="14.444444444444446%" stop-color="#fbae3c" stop-opacity="1"></stop><stop offset="85.55555555555554%" stop-color="#fbae3c" stop-opacity="1"></stop></linearGradient></defs><defs><linearGradient id="grad1_1" x1="43.8%" y1="100%" x2="100%" y2="0%"><stop offset="14.444444444444446%" stop-color="#fbae3c" stop-opacity="1"></stop><stop offset="85.55555555555554%" stop-color="#f48350" stop-opacity="1"></stop></linearGradient></defs><defs><linearGradient id="grad1_2" x1="43.8%" y1="100%" x2="100%" y2="0%"><stop offset="14.444444444444446%" stop-color="#d96162" stop-opacity="1"></stop><stop offset="85.55555555555554%" stop-color="#f48350" stop-opacity="1"></stop></linearGradient></defs><defs><linearGradient id="grad1_3" x1="43.8%" y1="100%" x2="100%" y2="0%"><stop offset="14.444444444444446%" stop-color="#d96162" stop-opacity="1"></stop><stop offset="85.55555555555554%" stop-color="#af4b6d" stop-opacity="1"></stop></linearGradient></defs><defs><linearGradient id="grad1_4" x1="43.8%" y1="100%" x2="100%" y2="0%"><stop offset="14.444444444444446%" stop-color="#7c3e6b" stop-opacity="1"></stop><stop offset="85.55555555555554%" stop-color="#af4b6d" stop-opacity="1"></stop></linearGradient></defs><defs><linearGradient id="grad1_5" x1="43.8%" y1="100%" x2="100%" y2="0%"><stop offset="14.444444444444446%" stop-color="#7c3e6b" stop-opacity="1"></stop><stop offset="85.55555555555554%" stop-color="#49335c" stop-opacity="1"></stop></linearGradient></defs><defs><linearGradient id="grad1_6" x1="43.8%" y1="100%" x2="100%" y2="0%"><stop offset="14.444444444444446%" stop-color="#1d2540" stop-opacity="1"></stop><stop offset="85.55555555555554%" stop-color="#49335c" stop-opacity="1"></stop></linearGradient></defs><defs><linearGradient id="grad1_7" x1="43.8%" y1="100%" x2="100%" y2="0%"><stop offset="14.444444444444446%" stop-color="#1d2540" stop-opacity="1"></stop><stop offset="85.55555555555554%" stop-color="#001220" stop-opacity="1"></stop></linearGradient></defs><defs><linearGradient id="grad2_0" x1="0%" y1="100%" x2="56.3%" y2="0%"><stop offset="14.444444444444446%" stop-color="#fbae3c" stop-opacity="1"></stop><stop offset="85.55555555555554%" stop-color="#fbae3c" stop-opacity="1"></stop></linearGradient></defs><defs><linearGradient id="grad2_1" x1="0%" y1="100%" x2="56.3%" y2="0%"><stop offset="14.444444444444446%" stop-color="#f48350" stop-opacity="1"></stop><stop offset="85.55555555555554%" stop-color="#fbae3c" stop-opacity="1"></stop></linearGradient></defs><defs><linearGradient id="grad2_2" x1="0%" y1="100%" x2="56.3%" y2="0%"><stop offset="14.444444444444446%" stop-color="#f48350" stop-opacity="1"></stop><stop offset="85.55555555555554%" stop-color="#d96162" stop-opacity="1"></stop></linearGradient></defs><defs><linearGradient id="grad2_3" x1="0%" y1="100%" x2="56.3%" y2="0%"><stop offset="14.444444444444446%" stop-color="#af4b6d" stop-opacity="1"></stop><stop offset="85.55555555555554%" stop-color="#d96162" stop-opacity="1"></stop></linearGradient></defs><defs><linearGradient id="grad2_4" x1="0%" y1="100%" x2="56.3%" y2="0%"><stop offset="14.444444444444446%" stop-color="#af4b6d" stop-opacity="1"></stop><stop offset="85.55555555555554%" stop-color="#7c3e6b" stop-opacity="1"></stop></linearGradient></defs><defs><linearGradient id="grad2_5" x1="0%" y1="100%" x2="56.3%" y2="0%"><stop offset="14.444444444444446%" stop-color="#49335c" stop-opacity="1"></stop><stop offset="85.55555555555554%" stop-color="#7c3e6b" stop-opacity="1"></stop></linearGradient></defs><defs><linearGradient id="grad2_6" x1="0%" y1="100%" x2="56.3%" y2="0%"><stop offset="14.444444444444446%" stop-color="#49335c" stop-opacity="1"></stop><stop offset="85.55555555555554%" stop-color="#1d2540" stop-opacity="1"></stop></linearGradient></defs><defs><linearGradient id="grad2_7" x1="0%" y1="100%" x2="56.3%" y2="0%"><stop offset="14.444444444444446%" stop-color="#001220" stop-opacity="1"></stop><stop offset="85.55555555555554%" stop-color="#1d2540" stop-opacity="1"></stop></linearGradient></defs><g transform="translate(960, 540)"><path d="M-405 0C-397.2 -75.7 -389.4 -151.3 -350.7 -202.5C-312.1 -253.7 -242.6 -280.4 -179 -310C-115.4 -339.7 -57.7 -372.4 0 -405L0 0Z" fill="#0c1c30"></path><path d="M-354.4 0C-347.5 -66.2 -340.7 -132.4 -306.9 -177.2C-273.1 -222 -212.3 -245.3 -156.6 -271.3C-101 -297.2 -50.5 -325.8 0 -354.4L0 0Z" fill="#312c4f"></path><path d="M-303.7 0C-297.9 -56.7 -292 -113.5 -263.1 -151.9C-234.1 -190.3 -181.9 -210.3 -134.3 -232.5C-86.6 -254.8 -43.3 -279.3 0 -303.7L0 0Z" fill="#623965"></path><path d="M-253.1 0C-248.2 -47.3 -243.4 -94.6 -219.2 -126.6C-195.1 -158.5 -151.6 -175.2 -111.9 -193.8C-72.1 -212.3 -36.1 -232.7 0 -253.1L0 0Z" fill="#96446e"></path><path d="M-202.5 0C-198.6 -37.8 -194.7 -75.7 -175.4 -101.3C-156 -126.8 -121.3 -140.2 -89.5 -155C-57.7 -169.9 -28.9 -186.2 0 -202.5L0 0Z" fill="#c55469"></path><path d="M-151.9 0C-148.9 -28.4 -146 -56.7 -131.5 -75.9C-117 -95.1 -91 -105.1 -67.1 -116.3C-43.3 -127.4 -21.6 -139.6 0 -151.9L0 0Z" fill="#e9705a"></path><path d="M-101.2 0C-99.3 -18.9 -97.3 -37.8 -87.7 -50.6C-78 -63.4 -60.6 -70.1 -44.8 -77.5C-28.9 -84.9 -14.4 -93.1 0 -101.2L0 0Z" fill="#fa9845"></path><path d="M-50.6 0C-49.6 -9.5 -48.7 -18.9 -43.8 -25.3C-39 -31.7 -30.3 -35 -22.4 -38.8C-14.4 -42.5 -7.2 -46.5 0 -50.6L0 0Z" fill="#fbae3c"></path></g><g transform="translate(0, 0)"><path d="M405 0C389.9 67.8 374.8 135.7 342.9 198C311.1 260.3 262.5 317.2 202.5 350.7C142.5 384.3 71.3 394.7 0 405L0 0Z" fill="#0c1c30"></path><path d="M354.4 0C341.2 59.4 328 118.7 300.1 173.2C272.2 227.8 229.6 277.5 177.2 306.9C124.7 336.3 62.4 345.3 0 354.4L0 0Z" fill="#312c4f"></path><path d="M303.8 0C292.4 50.9 281.1 101.8 257.2 148.5C233.3 195.2 196.8 237.9 151.9 263.1C106.9 288.2 53.5 296 0 303.8L0 0Z" fill="#623965"></path><path d="M253.1 0C243.7 42.4 234.3 84.8 214.3 123.7C194.4 162.7 164 198.2 126.6 219.2C89.1 240.2 44.5 246.7 0 253.1L0 0Z" fill="#96446e"></path><path d="M202.5 0C195 33.9 187.4 67.8 171.5 99C155.5 130.2 131.2 158.6 101.3 175.4C71.3 192.2 35.6 197.3 0 202.5L0 0Z" fill="#c55469"></path><path d="M151.9 0C146.2 25.4 140.6 50.9 128.6 74.2C116.7 97.6 98.4 118.9 75.9 131.5C53.5 144.1 26.7 148 0 151.9L0 0Z" fill="#e9705a"></path><path d="M101.3 0C97.5 17 93.7 33.9 85.7 49.5C77.8 65.1 65.6 79.3 50.6 87.7C35.6 96.1 17.8 98.7 0 101.3L0 0Z" fill="#fa9845"></path><path d="M50.6 0C48.7 8.5 46.9 17 42.9 24.7C38.9 32.5 32.8 39.6 25.3 43.8C17.8 48 8.9 49.3 0 50.6L0 0Z" fill="#fbae3c"></path></g></svg>