<svg id="visual" viewBox="0 0 960 540" width="960" height="540" xmlns="http://www.w3.org/2000/svg" xmlns:xlink="http://www.w3.org/1999/xlink" version="1.1"><rect x="0" y="0" width="960" height="540" fill="#001220"></rect><defs><linearGradient id="grad1_0" x1="43.8%" y1="0%" x2="100%" y2="100%"><stop offset="14.444444444444446%" stop-color="#fbae3c" stop-opacity="1"></stop><stop offset="85.55555555555554%" stop-color="#fbae3c" stop-opacity="1"></stop></linearGradient></defs><defs><linearGradient id="grad1_1" x1="43.8%" y1="0%" x2="100%" y2="100%"><stop offset="14.444444444444446%" stop-color="#fbae3c" stop-opacity="1"></stop><stop offset="85.55555555555554%" stop-color="#f48350" stop-opacity="1"></stop></linearGradient></defs><defs><linearGradient id="grad1_2" x1="43.8%" y1="0%" x2="100%" y2="100%"><stop offset="14.444444444444446%" stop-color="#d96162" stop-opacity="1"></stop><stop offset="85.55555555555554%" stop-color="#f48350" stop-opacity="1"></stop></linearGradient></defs><defs><linearGradient id="grad1_3" x1="43.8%" y1="0%" x2="100%" y2="100%"><stop offset="14.444444444444446%" stop-color="#d96162" stop-opacity="1"></stop><stop offset="85.55555555555554%" stop-color="#af4b6d" stop-opacity="1"></stop></linearGradient></defs><defs><linearGradient id="grad1_4" x1="43.8%" y1="0%" x2="100%" y2="100%"><stop offset="14.444444444444446%" stop-color="#7c3e6b" stop-opacity="1"></stop><stop offset="85.55555555555554%" stop-color="#af4b6d" stop-opacity="1"></stop></linearGradient></defs><defs><linearGradient id="grad1_5" x1="43.8%" y1="0%" x2="100%" y2="100%"><stop offset="14.444444444444446%" stop-color="#7c3e6b" stop-opacity="1"></stop><stop offset="85.55555555555554%" stop-color="#49335c" stop-opacity="1"></stop></linearGradient></defs><defs><linearGradient id="grad1_6" x1="43.8%" y1="0%" x2="100%" y2="100%"><stop offset="14.444444444444446%" stop-color="#1d2540" stop-opacity="1"></stop><stop offset="85.55555555555554%" stop-color="#49335c" stop-opacity="1"></stop></linearGradient></defs><defs><linearGradient id="grad1_7" x1="43.8%" y1="0%" x2="100%" y2="100%"><stop offset="14.444444444444446%" stop-color="#1d2540" stop-opacity="1"></stop><stop offset="85.55555555555554%" stop-color="#001220" stop-opacity="1"></stop></linearGradient></defs><defs><linearGradient id="grad2_0" x1="0%" y1="0%" x2="56.3%" y2="100%"><stop offset="14.444444444444446%" stop-color="#fbae3c" stop-opacity="1"></stop><stop offset="85.55555555555554%" stop-color="#fbae3c" stop-opacity="1"></stop></linearGradient></defs><defs><linearGradient id="grad2_1" x1="0%" y1="0%" x2="56.3%" y2="100%"><stop offset="14.444444444444446%" stop-color="#f48350" stop-opacity="1"></stop><stop offset="85.55555555555554%" stop-color="#fbae3c" stop-opacity="1"></stop></linearGradient></defs><defs><linearGradient id="grad2_2" x1="0%" y1="0%" x2="56.3%" y2="100%"><stop offset="14.444444444444446%" stop-color="#f48350" stop-opacity="1"></stop><stop offset="85.55555555555554%" stop-color="#d96162" stop-opacity="1"></stop></linearGradient></defs><defs><linearGradient id="grad2_3" x1="0%" y1="0%" x2="56.3%" y2="100%"><stop offset="14.444444444444446%" stop-color="#af4b6d" stop-opacity="1"></stop><stop offset="85.55555555555554%" stop-color="#d96162" stop-opacity="1"></stop></linearGradient></defs><defs><linearGradient id="grad2_4" x1="0%" y1="0%" x2="56.3%" y2="100%"><stop offset="14.444444444444446%" stop-color="#af4b6d" stop-opacity="1"></stop><stop offset="85.55555555555554%" stop-color="#7c3e6b" stop-opacity="1"></stop></linearGradient></defs><defs><linearGradient id="grad2_5" x1="0%" y1="0%" x2="56.3%" y2="100%"><stop offset="14.444444444444446%" stop-color="#49335c" stop-opacity="1"></stop><stop offset="85.55555555555554%" stop-color="#7c3e6b" stop-opacity="1"></stop></linearGradient></defs><defs><linearGradient id="grad2_6" x1="0%" y1="0%" x2="56.3%" y2="100%"><stop offset="14.444444444444446%" stop-color="#49335c" stop-opacity="1"></stop><stop offset="85.55555555555554%" stop-color="#1d2540" stop-opacity="1"></stop></linearGradient></defs><defs><linearGradient id="grad2_7" x1="0%" y1="0%" x2="56.3%" y2="100%"><stop offset="14.444444444444446%" stop-color="#001220" stop-opacity="1"></stop><stop offset="85.55555555555554%" stop-color="#1d2540" stop-opacity="1"></stop></linearGradient></defs><g transform="translate(960, 0)"><path d="M0 405C-75.7 397.2 -151.3 389.4 -202.5 350.7C-253.7 312.1 -280.4 242.6 -310 179C-339.7 115.4 -372.4 57.7 -405 0L0 0Z" fill="#0c1c30"></path><path d="M0 354.4C-66.2 347.5 -132.4 340.7 -177.2 306.9C-222 273.1 -245.3 212.3 -271.3 156.6C-297.2 101 -325.8 50.5 -354.4 0L0 0Z" fill="#312c4f"></path><path d="M0 303.8C-56.7 297.9 -113.5 292 -151.9 263.1C-190.3 234.1 -210.3 181.9 -232.5 134.3C-254.8 86.6 -279.3 43.3 -303.7 0L0 0Z" fill="#623965"></path><path d="M0 253.1C-47.3 248.2 -94.6 243.4 -126.6 219.2C-158.5 195.1 -175.2 151.6 -193.8 111.9C-212.3 72.1 -232.7 36.1 -253.1 0L0 0Z" fill="#96446e"></path><path d="M0 202.5C-37.8 198.6 -75.7 194.7 -101.2 175.4C-126.8 156 -140.2 121.3 -155 89.5C-169.9 57.7 -186.2 28.9 -202.5 0L0 0Z" fill="#c55469"></path><path d="M0 151.9C-28.4 148.9 -56.7 146 -75.9 131.5C-95.1 117 -105.1 91 -116.3 67.1C-127.4 43.3 -139.6 21.6 -151.9 0L0 0Z" fill="#e9705a"></path><path d="M0 101.3C-18.9 99.3 -37.8 97.3 -50.6 87.7C-63.4 78 -70.1 60.6 -77.5 44.8C-84.9 28.9 -93.1 14.4 -101.2 0L0 0Z" fill="#fa9845"></path><path d="M0 50.6C-9.5 49.6 -18.9 48.7 -25.3 43.8C-31.7 39 -35 30.3 -38.8 22.4C-42.5 14.4 -46.5 7.2 -50.6 0L0 0Z" fill="#fbae3c"></path></g><g transform="translate(0, 540)"><path d="M0 -405C67.8 -389.9 135.7 -374.8 198 -342.9C260.3 -311.1 317.2 -262.5 350.7 -202.5C384.3 -142.5 394.7 -71.3 405 0L0 0Z" fill="#0c1c30"></path><path d="M0 -354.4C59.4 -341.2 118.7 -328 173.2 -300.1C227.8 -272.2 277.5 -229.6 306.9 -177.2C336.3 -124.7 345.3 -62.4 354.4 0L0 0Z" fill="#312c4f"></path><path d="M0 -303.7C50.9 -292.4 101.8 -281.1 148.5 -257.2C195.2 -233.3 237.9 -196.8 263.1 -151.9C288.2 -106.9 296 -53.5 303.8 0L0 0Z" fill="#623965"></path><path d="M0 -253.1C42.4 -243.7 84.8 -234.3 123.7 -214.3C162.7 -194.4 198.2 -164 219.2 -126.6C240.2 -89.1 246.7 -44.5 253.1 0L0 0Z" fill="#96446e"></path><path d="M0 -202.5C33.9 -195 67.8 -187.4 99 -171.5C130.2 -155.5 158.6 -131.2 175.4 -101.3C192.2 -71.3 197.3 -35.6 202.5 0L0 0Z" fill="#c55469"></path><path d="M0 -151.9C25.4 -146.2 50.9 -140.6 74.2 -128.6C97.6 -116.7 118.9 -98.4 131.5 -75.9C144.1 -53.5 148 -26.7 151.9 0L0 0Z" fill="#e9705a"></path><path d="M0 -101.2C17 -97.5 33.9 -93.7 49.5 -85.7C65.1 -77.8 79.3 -65.6 87.7 -50.6C96.1 -35.6 98.7 -17.8 101.3 0L0 0Z" fill="#fa9845"></path><path d="M0 -50.6C8.5 -48.7 17 -46.9 24.7 -42.9C32.5 -38.9 39.6 -32.8 43.8 -25.3C48 -17.8 49.3 -8.9 50.6 0L0 0Z" fill="#fbae3c"></path></g></svg>